# Blender 4.2.1 LTS
# www.blender.org
mtllib garlic.mtl
o Object_2
v 0.145403 8.890979 0.919382
v 0.145403 -0.253161 0.919382
v 0.145403 -0.253162 -0.202788
v 0.145403 8.890979 -0.202788
v 0.887420 -0.143292 0.469592
v 0.525633 -0.263862 0.378366
v -1.020637 3.593291 1.074081
v -0.470207 3.776731 1.212879
v 0.298508 -0.327569 0.218061
v -1.366180 3.496367 0.830202
v 0.217673 -0.331131 -0.003103
v -1.489166 3.490947 0.493701
v 0.287281 -0.274377 -0.273804
v -1.383245 3.577294 0.081866
v 0.503767 -0.160202 -0.580154
v -1.053885 3.750995 -0.384215
v 0.752433 -0.187844 0.198239
v 0.469281 -0.369659 0.226175
v -0.925077 2.034461 2.558271
v -0.494317 2.311047 2.515764
v 0.243859 -0.452553 0.174949
v -1.268033 1.908332 2.480317
v 0.087720 -0.432313 0.047148
v -1.505596 1.939133 2.285898
v 0.008836 -0.309962 -0.150633
v -1.625608 2.125284 1.984984
v 0.011283 -0.091756 -0.408296
v -1.621892 2.457245 1.592985
v -0.378672 7.535411 0.412651
v -0.753544 8.344357 -0.312131
v 0.196303 8.489720 -0.641150
v 0.571160 7.680774 0.083632
v 1.592396 3.757127 0.281629
v 0.523063 -0.162912 -0.837352
v 0.528575 -0.283482 -0.464291
v 1.600789 3.573671 0.849217
v 0.432519 -0.347189 -0.203407
v 1.454652 3.476747 1.246126
v 0.239802 -0.350751 -0.068080
v 1.161451 3.471327 1.452005
v -0.039695 -0.293997 -0.065261
v 0.736235 3.557674 1.456294
v -0.391633 -0.179822 -0.195092
v 0.200794 3.731374 1.258778
v -0.490338 7.281357 -1.571641
v -0.207403 8.218678 -1.719372
v 0.283858 7.963523 -2.397341
v 0.000923 7.026203 -2.249612
v 0.432751 6.796460 -0.387297
v 0.374216 7.777635 -0.506845
v 1.121049 7.766594 -0.963139
v 1.179569 6.785404 -0.843592
v -0.404966 7.669283 -2.027750
v -0.371827 8.077806 -1.126387
v 0.305909 8.572490 -1.375502
v 0.272771 8.163968 -2.276865
v 1.492174 7.665428 -1.706597
v 0.931879 8.377172 -2.106525
v 0.538641 8.501397 -1.334496
v 1.098936 7.789652 -0.934584
v -0.187334 7.550618 -2.357746
v -0.087344 8.415901 -1.886863
v 0.778681 8.382421 -2.009245
v 0.678676 7.517124 -2.480127
v -1.020963 6.795206 -0.407893
v 0.010338 -0.344851 0.314225
v 0.520678 -0.344851 -0.414614
v -0.510624 6.795206 -1.136733
v 1.255928 9.008592 0.911283
v -1.008760 9.008592 -0.144748
v -1.008760 7.573661 -0.144748
v 1.255928 7.573661 0.911283
v 0.865647 -0.181015 -0.195804
v 0.554870 -0.340097 0.185913
v 0.524595 4.748553 2.422619
v 0.997429 4.990575 1.841883
v 0.236550 -0.424137 0.368099
v 0.040318 4.620690 2.699809
v -0.072958 -0.428844 0.341433
v -0.430579 4.613535 2.659237
v -0.357813 -0.353957 0.107278
v -0.863956 4.727446 2.302994
v -0.603397 -0.203345 -0.322383
v -1.237589 4.956616 1.649321
v 0.728446 7.657313 0.231983
v 1.170432 8.608400 0.701347
v 0.499044 8.545591 1.460863
v 0.057043 7.594504 0.991498
v 0.123584 8.468845 -0.866139
v 0.123584 8.468844 1.632676
v 0.123584 9.903775 1.632675
v 0.123584 9.903777 -0.866139
v 0.700913 2.378362 -2.224725
v -0.151748 -0.133691 0.020481
v 0.101904 -0.313137 -0.069040
v 1.086811 2.105353 -2.360904
v 0.319630 -0.402054 -0.067507
v 1.418076 1.970072 -2.358581
v 0.490280 -0.395891 0.024988
v 1.677690 1.979472 -2.217849
v 0.605104 -0.294941 0.203721
v 1.852381 2.133041 -1.945940
v 0.658204 -0.104393 0.459494
v 1.933169 2.422930 -1.556791
v 0.246538 8.028331 -0.613865
v 0.424126 8.514869 -1.457777
v 1.171702 8.070543 -1.556636
v 0.994115 7.583990 -0.712724
v 1.092479 9.095790 -0.277892
v 0.159216 9.381017 -0.884442
v -0.140335 9.996518 -0.134110
v 0.792928 9.711291 0.472441
v 0.560677 7.735902 -0.537274
v -0.208765 7.955966 -1.120333
v -0.484453 7.126812 -1.069479
v 0.284989 6.906748 -0.486405
v 1.443642 6.984656 -1.456801
v 1.303298 7.939567 -1.677918
v 1.002059 8.082669 -0.868694
v 1.142404 7.127757 -0.647562
v 0.504170 8.050444 -0.405849
v 0.977995 7.613365 0.545300
v 1.418401 8.508256 0.737119
v 0.944577 8.945333 -0.214030
v -0.375761 9.783066 -0.192242
v -0.375761 9.783066 0.956765
v 0.639916 9.783066 0.956765
v 0.639916 9.783066 -0.192242
v 0.539353 8.764851 1.314325
v 0.731884 7.727896 0.858354
v -0.224994 7.458604 1.066758
v -0.417525 8.495542 1.522727
v -1.124684 6.717949 -1.023611
v -0.093383 -0.422093 -0.301477
v 0.624384 -0.267594 0.201104
v -0.406917 6.872448 -0.521014
v -0.179870 8.643042 1.405782
v -1.083323 8.797447 0.712837
v -0.979105 7.848698 0.365575
v -0.075668 7.694292 1.058519
v -0.751965 4.925149 -1.993001
v -0.367522 -0.047205 0.465225
v -0.088273 -0.236701 0.073148
v -0.327121 4.636856 -2.589486
v 0.214452 -0.333934 -0.128039
v 0.133463 4.488908 -2.895571
v 0.525153 -0.333934 -0.128039
v 0.606157 4.488908 -2.895571
v 0.827894 -0.236701 0.073148
v 1.066726 4.636856 -2.589486
v 1.107143 -0.047205 0.465225
v 1.491585 4.925149 -1.993001
v 1.440700 7.341781 -0.773784
v -0.323234 7.127308 -1.990151
v -0.323234 8.345084 -2.204873
v 1.440700 8.559560 -0.988505
v 0.056671 8.258692 -2.095793
v 0.056671 8.430643 -1.120657
v 0.931941 8.430643 -1.120657
v 0.931941 8.258692 -2.095793
v -0.491670 9.625703 0.929479
v -0.806117 9.403255 -0.153049
v -1.007878 8.441374 0.103205
v -0.693414 8.663823 1.185734
v -0.417076 7.313567 -0.933857
v 1.534542 7.155538 -1.830079
v 1.534542 8.373301 -2.044799
v -0.417076 8.531328 -1.148578
v -0.074708 6.706397 -2.067795
v -0.188464 7.689369 -2.032163
v 0.617725 7.794406 -2.356368
v 0.731466 6.811435 -2.392000
v 0.094007 7.589053 -1.466324
v 0.094007 -0.171274 -0.097967
v 1.061058 -0.171274 -0.097967
v 1.061058 7.589053 -1.466324
v -0.899866 9.008592 1.099895
v 1.147034 9.008592 -0.333361
v 1.147034 7.573661 -0.333361
v -0.899866 7.573661 1.099896
v 0.558725 7.047588 -2.442297
v 0.558725 7.421516 -0.321639
v 0.558725 8.639278 -0.536360
v 0.558725 8.265350 -2.657017
v -0.832365 8.010584 0.487740
v -0.959501 9.031433 -0.024070
v -0.258675 8.773584 -0.712492
v -0.131524 7.752735 -0.200682
v -1.010510 8.560566 0.209823
v -0.682187 9.661489 0.229861
v -0.112121 9.506511 -0.596336
v -0.440443 8.405587 -0.616373
v -0.528231 8.003475 -0.473040
v -0.660213 9.119622 -0.234239
v 0.275295 9.304998 -0.583575
v 0.407293 8.188852 -0.822376
v 1.285675 8.297204 0.000336
v 0.642626 8.846738 -0.777314
v 0.554343 9.637224 -0.145723
v 1.197393 9.087707 0.631926
v 2.274778 2.605953 0.707743
v 0.266422 0.077391 -0.398896
v 0.351034 -0.108914 -0.156006
v 2.403525 2.322506 1.077257
v 0.343199 -0.209353 0.051855
v 2.391585 2.169696 1.393516
v 0.243286 -0.218799 0.214065
v 2.239580 2.155325 1.640293
v 0.056423 -0.136742 0.322309
v 1.955298 2.280169 1.804965
v -0.207790 0.032592 0.371011
v 1.553310 2.537801 1.879064
v -0.266232 8.984713 -0.794751
v 0.533809 9.750546 -0.488728
v 1.192344 8.995661 -0.321236
v 0.392303 8.229827 -0.627260
v 0.724436 8.421182 -1.060110
v -0.053756 8.401375 -1.672049
v -0.489610 7.900698 -1.101565
v 0.288566 7.920520 -0.489625
v 1.321942 7.662609 -2.065644
v 0.517689 7.813903 -2.623073
v 0.259546 8.448545 -2.078403
v 1.063799 8.297251 -1.520957
v -0.155433 9.221191 1.454854
v 0.050647 9.947259 0.588489
v 0.918143 9.459404 0.385986
v 0.712062 8.733337 1.252352
v 1.956908 4.925149 -1.740603
v -0.318046 -0.047205 -0.733026
v 0.132937 -0.236700 -0.564761
v 2.643023 4.636857 -1.484613
v 0.405621 -0.333934 -0.324411
v 3.057894 4.488909 -1.118939
v 0.486037 -0.333934 -0.024303
v 3.180229 4.488909 -0.662349
v 0.370051 -0.236701 0.320187
v 3.003772 4.636857 -0.138244
v 0.063624 -0.047205 0.691405
v 2.537582 4.925148 0.426511
v 0.209095 9.182291 1.538259
v -0.683782 9.551265 0.916285
v -1.003681 8.593472 0.807330
v -0.110804 8.224501 1.429319
v 1.290011 9.026663 0.132967
v 0.639838 9.920624 -0.180628
v 0.183513 9.907012 0.726651
v 0.833701 9.013066 1.040262
v -1.040211 7.739572 -1.238177
v -0.844831 6.386916 -1.101378
v -0.583095 6.499109 -0.365835
v -0.778476 7.851764 -0.502633
v 0.151055 7.490983 -2.487652
v 0.840499 8.186731 -2.342537
v 1.408010 7.571152 -2.087431
v 0.718567 6.875405 -2.232546
v 1.147034 8.468845 1.099897
v -0.899866 8.468845 -0.333361
v -0.899866 9.903777 -0.333361
v 1.147034 9.903777 1.099896
v -1.115889 8.935377 0.574753
v -0.788170 8.603244 -0.475255
v -0.470237 7.716499 -0.095535
v -0.797956 8.048632 0.954472
v 0.045924 8.687129 -0.870057
v 1.109187 8.535557 -0.461720
v 0.784721 7.747376 0.090616
v -0.278543 7.898948 -0.317721
v -1.008760 8.468845 0.911283
v 1.255928 8.468845 -0.144748
v 1.255928 9.903777 -0.144748
v -1.008760 9.903777 0.911283
v -0.541563 7.834962 -1.007258
v -0.346199 6.482291 -0.870459
v -1.081743 6.403734 -0.596754
v -1.277108 7.756389 -0.733552
v -0.390720 7.859770 1.254148
v -0.997951 8.124774 0.315387
v -0.272132 7.719859 -0.268399
v 0.335100 7.454840 0.670360
v 0.060651 8.078486 1.520343
v -0.007269 9.223854 1.581433
v 0.859360 9.303170 1.057761
v 0.927280 8.157804 0.996671
v -1.785418 2.378363 -0.335701
v 0.459789 -0.133691 0.516961
v 0.370267 -0.313137 0.263309
v -1.921597 2.105354 -0.721597
v 0.371800 -0.402054 0.045584
v -1.919275 1.970073 -1.052862
v 0.464295 -0.395891 -0.125066
v -1.778542 1.979473 -1.312477
v 0.643028 -0.294941 -0.239891
v -1.506634 2.133041 -1.487169
v 0.898817 -0.104393 -0.292991
v -1.117484 2.422930 -1.567971
v 0.123584 9.008592 -0.866139
v 0.123584 9.008591 1.632675
v 0.123584 7.573661 1.632675
v 0.123584 7.573661 -0.866139
v -0.911450 9.095790 -0.233248
v -0.872999 9.381017 0.879135
v -0.086554 9.996518 0.694131
v -0.124989 9.711291 -0.418252
v 0.399117 9.760056 1.024080
v -0.503903 9.860726 0.320761
v -1.009689 9.173620 0.871810
v -0.106654 9.072948 1.575115
v 1.695823 7.025986 -1.712977
v 1.141676 7.375974 -2.455181
v 1.065596 8.141358 -2.037475
v 1.619743 7.791371 -1.295256
v -0.415698 8.890979 0.358298
v -0.415698 -0.253162 0.358297
v 0.706488 -0.253162 0.358297
v 0.706488 8.890979 0.358298
v -0.043210 8.292993 -1.120286
v -0.314206 7.942231 -2.005700
v -0.488061 7.164256 -1.644284
v -0.217066 7.515033 -0.758871
v 1.233706 8.198345 0.281273
v 1.070845 9.334158 0.220988
v 0.721276 9.334639 1.174614
v 0.884153 8.198825 1.234885
v -0.658913 9.026663 -0.634275
v -0.542864 9.920624 0.078196
v 0.462065 9.907012 -0.068405
v 0.346033 9.013066 -0.780891
v 0.577525 7.673015 -0.990146
v 0.577525 -0.087312 0.378211
v 0.577525 -0.255237 -0.574145
v 0.577525 7.505091 -1.942502
vn 1.0000 -0.0000 -0.0000
vn 0.6107 0.3898 -0.6893
vn 0.6848 0.4035 -0.6068
vn 0.8048 0.4198 -0.4196
vn 0.8813 0.4232 -0.2102
vn 0.8813 0.4232 -0.2101
vn 0.9105 0.4135 0.0106
vn 0.9104 0.4135 0.0106
vn 0.9072 0.4028 0.1218
vn 0.0864 0.7330 -0.6747
vn 0.1886 0.7506 -0.6332
vn 0.3830 0.7605 -0.5244
vn 0.5546 0.7383 -0.3839
vn 0.6949 0.6850 -0.2189
vn 0.7514 0.6468 -0.1305
vn -0.1378 -0.6956 -0.7051
vn -0.8238 0.3898 -0.4115
vn -0.7634 0.4035 -0.5044
vn -0.6136 0.4198 -0.6688
vn -0.4311 0.4232 -0.7969
vn -0.2254 0.4135 -0.8822
vn -0.1172 0.4028 -0.9078
vn -0.1172 0.4029 -0.9077
vn -0.7767 0.1376 -0.6146
vn -0.5181 -0.1338 -0.8448
vn -0.6319 0.7144 -0.3006
vn -0.6319 0.7144 -0.3005
vn 0.6913 0.6806 0.2426
vn -0.1040 0.4847 -0.8685
vn -0.1040 0.4846 -0.8685
vn 0.8067 0.1736 0.5649
vn -0.4226 -0.0000 0.9063
vn -0.3666 0.3898 -0.8448
vn -0.2606 0.4035 -0.8771
vn -0.0403 0.4198 -0.9067
vn -0.0402 0.4198 -0.9067
vn 0.1820 0.4232 -0.8876
vn 0.3944 0.4135 -0.8207
vn 0.4937 0.4028 -0.7707
vn 0.6443 -0.5577 0.5234
vn 0.6442 -0.5577 0.5234
vn -1.0000 -0.0000 -0.0000
vn 0.0735 0.6845 0.7253
vn -0.0339 0.7080 0.7054
vn -0.2447 0.7313 0.6367
vn -0.2446 0.7313 0.6367
vn -0.4406 0.7242 0.5305
vn -0.6116 0.6871 0.3923
vn -0.6853 0.6571 0.3140
vn -0.4882 -0.7077 -0.5107
vn 0.5033 0.7557 -0.4190
vn -0.5449 0.2306 0.8062
vn -0.5449 0.2306 0.8061
vn 0.9281 0.2079 0.3087
vn -0.8012 0.2811 0.5283
vn -0.0000 1.0000 -0.0000
vn -0.2904 0.3395 -0.8947
vn -0.5736 -0.0000 0.8192
vn -0.5736 -0.0000 0.8191
vn -0.6093 -0.3307 0.7207
vn 0.4318 0.4650 0.7729
vn 0.3287 0.4807 0.8129
vn 0.1115 0.4978 0.8601
vn -0.1115 0.4978 0.8601
vn -0.1116 0.4978 0.8601
vn -0.3287 0.4807 0.8129
vn -0.4318 0.4650 0.7729
vn 0.5736 -0.1422 -0.8067
vn -0.0000 0.9848 -0.1737
vn -0.9411 0.2562 0.2207
vn 0.4226 0.1574 0.8925
vn -0.3720 -0.0094 -0.9282
vn -0.0000 0.1736 0.9848
vn -0.5736 -0.0000 -0.8192
vn -0.7153 -0.3824 -0.5850
vn -0.7767 0.2422 -0.5814
vn -0.3720 0.1519 -0.9157
vn 0.8242 0.4068 -0.3940
vn -0.7671 0.6374 0.0723
vn -0.7429 0.6686 -0.0321
vn -0.6645 0.7088 -0.2369
vn -0.6645 0.7088 -0.2368
vn -0.5476 0.7198 -0.4266
vn -0.5477 0.7198 -0.4266
vn -0.3986 0.7011 -0.5913
vn -0.3148 0.6801 -0.6621
vn 0.3079 0.0579 -0.9497
vn -0.3666 0.8200 0.4396
vn 0.5033 0.6715 -0.5439
vn -0.4882 -0.6083 -0.6259
vn -0.6348 0.4650 0.6171
vn -0.7002 0.4807 0.5279
vn -0.8019 0.4978 0.3303
vn -0.8596 0.4978 0.1149
vn -0.8596 0.4978 0.1148
vn -0.8703 0.4807 -0.1071
vn -0.8583 0.4650 -0.2170
vn -0.5449 0.0871 0.8339
vn 0.6913 0.6281 0.3571
vn -0.9325 -0.0996 0.3470
vn 0.3079 -0.1079 -0.9453
vn 0.5736 -0.0000 -0.8192
vn -0.9059 -0.3927 -0.1585
vn 0.2040 -0.6168 -0.7602
vn 0.4226 -0.0000 0.9063
vn -0.3318 -0.1422 -0.9326
vn -0.4583 -0.8876 0.0459
vn -0.5181 0.0149 -0.8552
vn 0.7253 0.6845 -0.0735
vn 0.7054 0.7080 0.0339
vn 0.6367 0.7313 0.2447
vn 0.6367 0.7313 0.2446
vn 0.5305 0.7242 0.4406
vn 0.3923 0.6871 0.6116
vn 0.3140 0.6571 0.6853
vn -0.6319 0.7557 -0.1719
vn -0.3666 0.7312 0.5753
vn 0.8242 0.3322 -0.4587
vn -0.0000 -0.0000 1.0000
vn -0.9411 0.2906 0.1729
vn 0.9281 0.1511 0.3402
vn 0.9281 0.1511 0.3401
vn -0.1040 0.6281 -0.7712
vn -0.1040 0.6281 -0.7711
vt 0.789500 0.094500
vt 0.789500 0.983100
vt 0.878200 0.983100
vt 0.878200 0.094500
vt 0.037200 0.374800
vt 0.036000 0.411000
vt 0.603700 0.412200
vt 0.604900 0.376100
vt 0.034900 0.447100
vt 0.602600 0.448400
vt 0.033800 0.483300
vt 0.601500 0.484500
vt 0.032600 0.519400
vt 0.600300 0.520700
vt 0.031500 0.555600
vt 0.599200 0.556900
vt 0.024700 0.654300
vt 0.024700 0.944400
vt 0.310700 0.944400
vt 0.310700 0.654300
vt 0.883900 0.094500
vt 0.883900 0.983100
vt 0.972600 0.983100
vt 0.972600 0.094500
vt 0.348200 0.670100
vt 0.348200 0.909400
vt 0.497600 0.909400
vt 0.497600 0.670100
vt 0.597400 0.063200
vt 0.029700 0.061900
vt 0.028600 0.098100
vt 0.596300 0.099400
vt 0.027500 0.134300
vt 0.595100 0.135500
vt 0.026300 0.170400
vt 0.594000 0.171700
vt 0.025200 0.206600
vt 0.592900 0.207800
vt 0.024100 0.242700
vt 0.591800 0.244000
vt 0.499600 0.629400
vt 0.499600 0.968200
vt 0.675000 0.968200
vt 0.675000 0.629400
s 0
usemtl Baerlauch.003
f 1/1/1 2/2/1 3/3/1
f 1/1/1 3/3/1 4/4/1
s 1
f 5/5/2 6/6/3 7/7/3
f 5/5/2 7/7/3 8/8/2
f 6/6/3 9/9/4 10/10/4
f 6/6/3 10/10/4 7/7/3
f 9/9/4 11/11/5 12/12/6
f 9/9/4 12/12/6 10/10/4
f 11/11/5 13/13/7 14/14/8
f 11/11/5 14/14/8 12/12/6
f 13/13/7 15/15/9 16/16/9
f 13/13/7 16/16/9 14/14/8
f 17/5/10 18/6/11 19/7/11
f 17/5/10 19/7/11 20/8/10
f 18/6/11 21/9/12 22/10/12
f 18/6/11 22/10/12 19/7/11
f 21/9/12 23/11/13 24/12/13
f 21/9/12 24/12/13 22/10/12
f 23/11/13 25/13/14 26/14/14
f 23/11/13 26/14/14 24/12/13
f 25/13/14 27/15/15 28/16/15
f 25/13/14 28/16/15 26/14/14
s 0
f 29/17/16 30/18/16 31/19/16
f 29/17/16 31/19/16 32/20/16
s 1
f 33/8/17 34/5/17 35/6/18
f 33/8/17 35/6/18 36/7/18
f 36/7/18 35/6/18 37/9/19
f 36/7/18 37/9/19 38/10/19
f 38/10/19 37/9/19 39/11/20
f 38/10/19 39/11/20 40/12/20
f 40/12/20 39/11/20 41/13/21
f 40/12/20 41/13/21 42/14/21
f 42/14/21 41/13/21 43/15/22
f 42/14/21 43/15/22 44/16/23
s 0
f 45/17/24 46/18/24 47/19/24
f 45/17/24 47/19/24 48/20/24
s 1
f 49/17/25 50/18/25 51/19/25
s 0
f 49/17/25 51/19/25 52/20/25
f 53/17/26 54/18/26 55/19/26
f 53/17/27 55/19/27 56/20/27
f 57/17/28 58/18/28 59/19/28
f 57/17/28 59/19/28 60/20/28
f 61/17/29 62/18/29 63/19/29
f 61/17/30 63/19/30 64/20/30
f 65/21/31 66/22/31 67/23/31
s 1
f 65/21/31 67/23/31 68/24/31
s 0
f 69/25/32 70/26/32 71/27/32
f 69/25/32 71/27/32 72/28/32
s 1
f 73/5/33 74/6/34 75/7/34
f 73/5/33 75/7/34 76/8/33
f 74/6/34 77/9/35 78/10/36
f 74/6/34 78/10/36 75/7/34
f 77/9/35 79/11/37 80/12/37
f 77/9/35 80/12/37 78/10/36
f 79/11/37 81/13/38 82/14/38
f 79/11/37 82/14/38 80/12/37
f 81/13/38 83/15/39 84/16/39
f 81/13/38 84/16/39 82/14/38
s 0
f 85/17/40 86/18/40 87/19/40
f 85/17/41 87/19/41 88/20/41
f 89/25/42 90/26/42 91/27/42
f 89/25/42 91/27/42 92/28/42
s 1
f 93/29/43 94/30/43 95/31/44
f 93/29/43 95/31/44 96/32/44
f 96/32/44 95/31/44 97/33/45
f 96/32/44 97/33/45 98/34/46
f 98/34/46 97/33/45 99/35/47
f 98/34/46 99/35/47 100/36/47
f 100/36/47 99/35/47 101/37/48
f 100/36/47 101/37/48 102/38/48
f 102/38/48 101/37/48 103/39/49
f 102/38/48 103/39/49 104/40/49
s 0
f 105/17/50 106/18/50 107/19/50
f 105/17/50 107/19/50 108/20/50
f 109/17/51 110/18/51 111/19/51
f 109/17/51 111/19/51 112/20/51
f 113/17/52 114/18/52 115/19/52
f 113/17/53 115/19/53 116/20/53
f 117/17/54 118/18/54 119/19/54
f 117/17/54 119/19/54 120/20/54
f 121/17/55 122/18/55 123/19/55
f 121/17/55 123/19/55 124/20/55
f 125/17/56 126/18/56 127/19/56
f 125/17/56 127/19/56 128/20/56
f 129/17/57 130/18/57 131/19/57
f 129/17/57 131/19/57 132/20/57
f 133/21/58 134/22/58 135/23/58
f 133/21/59 135/23/59 136/24/59
f 137/17/60 138/18/60 139/19/60
f 137/17/60 139/19/60 140/20/60
s 1
f 141/29/61 142/30/61 143/31/62
f 141/29/61 143/31/62 144/32/62
f 144/32/62 143/31/62 145/33/63
f 144/32/62 145/33/63 146/34/63
f 146/34/63 145/33/63 147/35/64
f 146/34/63 147/35/64 148/36/65
f 148/36/65 147/35/64 149/37/66
f 148/36/65 149/37/66 150/38/66
f 150/38/66 149/37/66 151/39/67
f 150/38/66 151/39/67 152/40/67
s 0
f 153/25/68 154/26/68 155/27/68
f 153/25/68 155/27/68 156/28/68
f 157/17/69 158/18/69 159/19/69
f 157/17/69 159/19/69 160/20/69
f 161/17/70 162/18/70 163/19/70
f 161/17/70 163/19/70 164/20/70
f 165/25/71 166/26/71 167/27/71
s 1
f 165/25/71 167/27/71 168/28/71
s 0
f 169/17/72 170/18/72 171/19/72
f 169/17/72 171/19/72 172/20/72
f 173/1/73 174/2/73 175/3/73
f 173/1/73 175/3/73 176/4/73
f 177/25/74 178/26/74 179/27/74
f 177/25/74 179/27/74 180/28/74
f 181/25/42 182/26/42 183/27/42
f 181/25/42 183/27/42 184/28/42
f 185/17/75 186/18/75 187/19/75
f 185/17/75 187/19/75 188/20/75
f 189/17/76 190/18/76 191/19/76
f 189/17/76 191/19/76 192/20/76
f 193/17/77 194/18/77 195/19/77
f 193/17/77 195/19/77 196/20/77
f 197/17/78 198/18/78 199/19/78
f 197/17/78 199/19/78 200/20/78
s 1
f 201/29/79 202/30/79 203/31/80
f 201/29/79 203/31/80 204/32/80
f 204/32/80 203/31/80 205/33/81
f 204/32/80 205/33/81 206/34/82
f 206/34/82 205/33/81 207/35/83
f 206/34/82 207/35/83 208/36/84
f 208/36/84 207/35/83 209/37/85
f 208/36/84 209/37/85 210/38/85
f 210/38/85 209/37/85 211/39/86
f 210/38/85 211/39/86 212/40/86
s 0
f 213/17/87 214/18/87 215/19/87
f 213/17/87 215/19/87 216/20/87
f 217/17/88 218/18/88 219/19/88
f 217/17/88 219/19/88 220/20/88
f 221/17/89 222/18/89 223/19/89
f 221/17/89 223/19/89 224/20/89
f 225/17/90 226/18/90 227/19/90
f 225/17/90 227/19/90 228/20/90
s 1
f 229/29/91 230/30/91 231/31/92
f 229/29/91 231/31/92 232/32/92
f 232/32/92 231/31/92 233/33/93
f 232/32/92 233/33/93 234/34/93
f 234/34/93 233/33/93 235/35/94
f 234/34/93 235/35/94 236/36/95
f 236/36/95 235/35/94 237/37/96
f 236/36/95 237/37/96 238/38/96
f 238/38/96 237/37/96 239/39/97
f 238/38/96 239/39/97 240/40/97
s 0
f 241/17/98 242/18/98 243/19/98
f 241/17/98 243/19/98 244/20/98
f 245/17/99 246/18/99 247/19/99
f 245/17/99 247/19/99 248/20/99
f 249/41/100 250/42/100 251/43/100
f 249/41/100 251/43/100 252/44/100
f 253/17/101 254/18/101 255/19/101
f 253/17/101 255/19/101 256/20/101
f 257/25/102 258/26/102 259/27/102
f 257/25/102 259/27/102 260/28/102
f 261/17/103 262/18/103 263/19/103
f 261/17/103 263/19/103 264/20/103
f 265/17/104 266/18/104 267/19/104
f 265/17/104 267/19/104 268/20/104
f 269/25/105 270/26/105 271/27/105
f 269/25/105 271/27/105 272/28/105
f 273/41/106 274/42/106 275/43/106
f 273/41/106 275/43/106 276/44/106
f 277/17/107 278/18/107 279/19/107
f 277/17/107 279/19/107 280/20/107
f 281/17/108 282/18/108 283/19/108
f 281/17/108 283/19/108 284/20/108
s 1
f 285/29/109 286/30/109 287/31/110
f 285/29/109 287/31/110 288/32/110
f 288/32/110 287/31/110 289/33/111
f 288/32/110 289/33/111 290/34/112
f 290/34/112 289/33/111 291/35/113
f 290/34/112 291/35/113 292/36/113
f 292/36/113 291/35/113 293/37/114
f 292/36/113 293/37/114 294/38/114
f 294/38/114 293/37/114 295/39/115
f 294/38/114 295/39/115 296/40/115
s 0
f 297/25/1 298/26/1 299/27/1
f 297/25/1 299/27/1 300/28/1
f 301/17/116 302/18/116 303/19/116
f 301/17/116 303/19/116 304/20/116
f 305/17/117 306/18/117 307/19/117
f 305/17/117 307/19/117 308/20/117
s 1
f 309/17/118 310/18/118 311/19/118
s 0
f 309/17/118 311/19/118 312/20/118
f 313/1/119 314/2/119 315/3/119
f 313/1/119 315/3/119 316/4/119
f 317/17/120 318/18/120 319/19/120
f 317/17/120 319/19/120 320/20/120
f 321/17/121 322/18/121 323/19/121
f 321/17/122 323/19/122 324/20/122
f 325/17/123 326/18/123 327/19/123
f 325/17/124 327/19/124 328/20/124
f 329/1/1 330/2/1 331/3/1
f 329/1/1 331/3/1 332/4/1
